<?xml version="1.0" encoding="utf-8"?>
<!-- Generator: Adobe Illustrator 22.0.0, SVG Export Plug-In . SVG Version: 6.00 Build 0)  -->
<svg version="1.1" id="Layer_1" xmlns="http://www.w3.org/2000/svg" xmlns:xlink="http://www.w3.org/1999/xlink" x="0px" y="0px"
	 viewBox="0 0 640 480" style="enable-background:new 0 0 640 480;" xml:space="preserve">
<style type="text/css">
	.st0{fill:url(#SVGID_1_);}
	.st1{fill:url(#SVGID_2_);}
	.st2{fill:url(#SVGID_3_);}
	.st3{fill:#FFFFFF;}
	.st4{fill:none;stroke:#000000;stroke-miterlimit:10;}
	.st5{fill:#FFFFFF;stroke:#000000;stroke-miterlimit:10;}
	.st6{fill:url(#SVGID_4_);}
	.st7{fill:url(#SVGID_5_);}
</style>
<g>
	<linearGradient id="SVGID_1_" gradientUnits="userSpaceOnUse" x1="160.6653" y1="181.9347" x2="229.8188" y2="221.8605">
		<stop  offset="0" style="stop-color:#FFFFFF"/>
		<stop  offset="1" style="stop-color:#B3B3B3"/>
	</linearGradient>
	<path class="st0" d="M197.2,278.4c-20.8-19.5-32.7-46.9-32.7-75.4c0-28.6,11.9-55.9,32.7-75.4c-12.9,23-19.7,49-19.7,75.4
		S184.3,255.5,197.2,278.4z"/>
	<path d="M195.1,130.2C183.3,152.5,177,177.6,177,203c0,25.4,6.3,50.5,18.1,72.8C175.9,256.5,165,230.3,165,203
		C165,175.7,175.9,149.5,195.1,130.2 M199.2,125C177.6,144.1,164,172,164,203s13.6,58.9,35.2,78c-13.5-22.9-21.2-49.5-21.2-78
		C178,174.5,185.7,147.9,199.2,125L199.2,125z"/>
</g>
<g>
	<linearGradient id="SVGID_2_" gradientUnits="userSpaceOnUse" x1="432.3564" y1="184.14" x2="501.5103" y2="224.0659">
		<stop  offset="0" style="stop-color:#FFFFFF"/>
		<stop  offset="1" style="stop-color:#B3B3B3"/>
	</linearGradient>
	<path class="st1" d="M465,278.4c12.9-23,19.7-49,19.7-75.4s-6.8-52.5-19.7-75.4c20.8,19.5,32.7,46.9,32.7,75.4
		C497.7,231.6,485.8,258.9,465,278.4z"/>
	<path d="M467,130.2c19.2,19.3,30.1,45.4,30.1,72.8c0,27.3-10.9,53.5-30.1,72.8c11.9-22.3,18.1-47.3,18.1-72.8
		C485.2,177.6,478.9,152.5,467,130.2 M463,125c13.5,22.9,21.2,49.5,21.2,78c0,28.5-7.7,55.1-21.2,78c21.6-19.1,35.2-46.9,35.2-78
		S484.6,144.1,463,125L463,125z"/>
</g>
<g>
	<linearGradient id="SVGID_3_" gradientUnits="userSpaceOnUse" x1="198.0912" y1="126.265" x2="463.909" y2="279.735">
		<stop  offset="0" style="stop-color:#E6E6E6"/>
		<stop  offset="0.4059" style="stop-color:#E6E6E6"/>
		<stop  offset="1" style="stop-color:#B3B3B3"/>
	</linearGradient>
	<circle class="st2" cx="331" cy="203" r="153.5"/>
	<path d="M331,50c40.9,0,79.3,15.9,108.2,44.8C468.1,123.7,484,162.1,484,203s-15.9,79.3-44.8,108.2C410.3,340.1,371.9,356,331,356
		s-79.3-15.9-108.2-44.8C193.9,282.3,178,243.9,178,203s15.9-79.3,44.8-108.2S290.1,50,331,50 M331,49c-85.1,0-154,68.9-154,154
		s68.9,154,154,154s154-68.9,154-154S416.1,49,331,49L331,49z"/>
</g>
<g>
	<path class="st3" d="M265.5,233.5c-23.1,0-37.6-3.7-45.6-11.7c-8.7-8.8-8.6-21.8-8.5-36.8c0-1.8,0-3.6,0-5.4c0-29.8,24.2-54,54-54
		s54,24.2,54,54c0,3.9,0.2,7.8,0.4,11.5c0.6,12.6,1.1,23.5-6.1,31C306.3,229.8,291,233.5,265.5,233.5z"/>
	<path d="M265.5,126c29.5,0,53.5,24,53.5,53.5c0,3.9,0.2,7.8,0.4,11.5c0.6,12.5,1.1,23.2-5.9,30.7c-7.4,7.7-22.6,11.4-47.9,11.4
		c-23,0-37.4-3.7-45.2-11.6c-8.6-8.6-8.5-21.5-8.3-36.5c0-1.8,0-3.6,0-5.4C212,150,236,126,265.5,126 M265.5,125
		c-30.1,0-54.5,24.4-54.5,54.5s-4,54.5,54.5,54.5c65.5,0,54.5-24.4,54.5-54.5S295.6,125,265.5,125L265.5,125z"/>
</g>
<g>
	<path class="st3" d="M396.5,233.5c-25.5,0-40.8-3.7-48.3-11.5c-7.2-7.6-6.7-18.4-6.1-31c0.2-3.7,0.4-7.5,0.4-11.5
		c0-29.8,24.2-54,54-54s54,24.2,54,54C450.5,209.7,450.5,233.5,396.5,233.5z"/>
	<path d="M396.5,126c29.5,0,53.5,24,53.5,53.5c0,29.9,0,53.5-53.5,53.5c-25.3,0-40.6-3.6-47.9-11.4c-7.1-7.4-6.5-18.2-5.9-30.7
		c0.2-3.7,0.4-7.5,0.4-11.5C343,150,367,126,396.5,126 M396.5,125c-30.1,0-54.5,24.4-54.5,54.5S331,234,396.5,234
		c54.5,0,54.5-24.4,54.5-54.5S426.6,125,396.5,125L396.5,125z"/>
</g>
<path class="st4" d="M307.5,253.5c10,0,19-5,23-5c5,0,11,5,24,5"/>
<path class="st5" d="M320,191.5"/>
<g>
	<radialGradient id="SVGID_4_" cx="264" cy="179" r="39.5" gradientUnits="userSpaceOnUse">
		<stop  offset="0" style="stop-color:#FFFFFF"/>
		<stop  offset="0.2302" style="stop-color:#333333"/>
		<stop  offset="1" style="stop-color:#000000"/>
	</radialGradient>
	<circle class="st6" cx="264" cy="179" r="39.5"/>
	<path d="M264,140c21.5,0,39,17.5,39,39s-17.5,39-39,39s-39-17.5-39-39S242.5,140,264,140 M264,139c-22.1,0-40,17.9-40,40
		s17.9,40,40,40s40-17.9,40-40S286.1,139,264,139L264,139z"/>
</g>
<g>
	<circle class="st3" cx="264" cy="179" r="3"/>
</g>
<g>
	<radialGradient id="SVGID_5_" cx="396" cy="182" r="39.5" gradientUnits="userSpaceOnUse">
		<stop  offset="0" style="stop-color:#FFFFFF"/>
		<stop  offset="0.2302" style="stop-color:#333333"/>
		<stop  offset="1" style="stop-color:#000000"/>
	</radialGradient>
	<circle class="st7" cx="396" cy="182" r="39.5"/>
	<path d="M396,143c21.5,0,39,17.5,39,39s-17.5,39-39,39c-21.5,0-39-17.5-39-39S374.5,143,396,143 M396,142c-22.1,0-40,17.9-40,40
		s17.9,40,40,40c22.1,0,40-17.9,40-40S418.1,142,396,142L396,142z"/>
</g>
<g>
	<circle class="st3" cx="396" cy="182" r="3"/>
</g>
<g>
	<circle class="st3" cx="374.5" cy="162.5" r="13.5"/>
</g>
<g>
	<circle class="st3" cx="240.5" cy="162.5" r="13.5"/>
</g>
</svg>
