<?xml version="1.0" standalone="no"?><!-- Generator: Gravit.io --><svg xmlns="http://www.w3.org/2000/svg" xmlns:xlink="http://www.w3.org/1999/xlink" style="isolation:isolate" viewBox="118 0 315 315" width="315" height="315"><g><g><g><linearGradient id="_lgradient_0" x1="0" y1="0.5" x2="1" y2="0.5" gradientTransform="matrix(234.667,0,0,174.512,192.793,39.576)" gradientUnits="userSpaceOnUse"><stop offset="0%" stop-opacity="1" style="stop-color:rgb(0,159,251)"/><stop offset="99.1304347826087%" stop-opacity="1" style="stop-color:rgb(41,244,154)"/></linearGradient><path d=" M 423.993 43.063 C 419.359 38.421 411.84 38.413 407.206 43.044 L 264.784 185.09 L 213.398 129.28 C 208.958 124.461 201.451 124.148 196.623 128.588 C 191.799 133.028 191.49 140.539 195.931 145.363 L 255.686 210.258 C 257.874 212.637 260.937 214.018 264.166 214.085 C 264.253 214.089 264.337 214.089 264.42 214.089 C 267.558 214.089 270.577 212.842 272.801 210.626 L 423.97 59.854 C 428.615 55.224 428.623 47.705 423.993 43.063 Z " fill="url(#_lgradient_0)"/></g></g><g><g><linearGradient id="_lgradient_1" x1="0.5301587301587302" y1="0" x2="0.5238095238095238" y2="0.9873015873015875" gradientTransform="matrix(315,0,0,315,118,0)" gradientUnits="userSpaceOnUse"><stop offset="0%" stop-opacity="1" style="stop-color:rgb(41,244,154)"/><stop offset="98.69565217391305%" stop-opacity="1" style="stop-color:rgb(0,159,251)"/></linearGradient><path d=" M 421.128 145.628 C 414.571 145.628 409.256 150.942 409.256 157.5 C 409.256 231.256 349.256 291.256 275.5 291.256 C 201.748 291.256 141.744 231.256 141.744 157.5 C 141.744 83.748 201.748 23.744 275.5 23.744 C 282.057 23.744 287.372 18.429 287.372 11.872 C 287.372 5.314 282.057 0 275.5 0 C 188.654 0 118 70.654 118 157.5 C 118 244.343 188.654 315 275.5 315 C 362.343 315 433 244.343 433 157.5 C 433 150.943 427.686 145.628 421.128 145.628 Z " fill="url(#_lgradient_1)"/></g></g></g></svg>