<?xml version="1.0" standalone="no"?><!-- Generator: Gravit.io --><svg xmlns="http://www.w3.org/2000/svg" xmlns:xlink="http://www.w3.org/1999/xlink" style="isolation:isolate" viewBox="107 0 315 315" width="315" height="315"><g><g><g><path d=" M 412.993 43.063 C 408.359 38.421 400.84 38.413 396.206 43.044 L 253.784 185.09 L 202.398 129.28 C 197.958 124.461 190.451 124.148 185.623 128.588 C 180.799 133.028 180.49 140.539 184.931 145.363 L 244.686 210.258 C 246.874 212.637 249.937 214.018 253.166 214.085 C 253.253 214.089 253.337 214.089 253.42 214.089 C 256.558 214.089 259.577 212.842 261.801 210.626 L 412.97 59.854 C 417.615 55.224 417.623 47.705 412.993 43.063 Z " fill="rgb(255,255,255)"/></g></g><g><g><path d=" M 410.128 145.628 C 403.571 145.628 398.256 150.942 398.256 157.5 C 398.256 231.256 338.256 291.256 264.5 291.256 C 190.748 291.256 130.744 231.256 130.744 157.5 C 130.744 83.748 190.748 23.744 264.5 23.744 C 271.057 23.744 276.372 18.429 276.372 11.872 C 276.372 5.314 271.057 0 264.5 0 C 177.654 0 107 70.654 107 157.5 C 107 244.343 177.654 315 264.5 315 C 351.343 315 422 244.343 422 157.5 C 422 150.943 416.686 145.628 410.128 145.628 Z " fill="rgb(255,255,255)"/></g></g></g></svg>